# xmcd
#
# Track frame offsets:
#	150
#	14460
#	29147
#	42220
#	56235
#	66995
#	77770
#	90002
#	101785
#	112902
#	125767
#	138852
#	151170
#	164782
#	174117
#	186075
#	198997
#	212275
#	225230
#	238247
#	248500
#	260662
#	273572
#	285502
#
# Disc length: 3968 seconds
# Revision: 0
# Processed by: cddbd v1.5.2PL0 Copyright (c) Steve Scherf et al.
# Submitted via: dBpowerAMP V12.0
#
DISCID=4a0f7e18
DTITLE=Pee Wee Crayton/L. C. McKinley/Snooky Pryor/Billy Boy - The Telephone Is Ringing
DYEAR=1900
DGENRE=Blues
TTITLE0=The Telephone Is Ringing
TTITLE1=Tie It Down
TTITLE2=Fiddle De Dee
TTITLE3=A Frosty Night
TTITLE4=Is This The Price
TTITLE5=Second Hand Love
TTITLE6=I Love Her Still
TTITLE7=Blues After Hours
TTITLE8=I Found Peace Of Mine
TTITLE9=She's Five Feet Three
TTITLE10=Down With It
TTITLE11=I'm So Satisfied
TTITLE12=Lonely
TTITLE13=You Tried To Ruin Me
TTITLE14=Someone To Love Me
TTITLE15=Judgement Day
TTITLE16=I Wish You Would
TTITLE17=I Was Fooled
TTITLE18=Don't Stay Out All Night
TTITLE19=I Ain't Got You
TTITLE20=You've Got Me Wrong
TTITLE21=Prisoner's Plea
TTITLE22=No, No, No,
TTITLE23=Rockinitis
EXTD=
EXTT0=
EXTT1=
EXTT2=
EXTT3=
EXTT4=
EXTT5=
EXTT6=
EXTT7=
EXTT8=
EXTT9=
EXTT10=
EXTT11=
EXTT12=
EXTT13=
EXTT14=
EXTT15=
EXTT16=
EXTT17=
EXTT18=
EXTT19=
EXTT20=
EXTT21=
EXTT22=
EXTT23=
PLAYORDER=
